<svg width="142" height="91" viewBox="0 0 142 91" fill="none" xmlns="http://www.w3.org/2000/svg">
<g clip-path="url(#clip0_225_220)">
<path d="M16.6788 8.01505C14.8962 8.01505 13.4517 9.44862 13.4517 11.2192V77.4688C13.4517 79.2356 14.8962 80.6692 16.6788 80.6692H125.319C127.102 80.6692 128.55 79.2375 128.55 77.4688V11.2173C128.55 9.44862 127.102 8.01318 125.319 8.01318H16.6788V8.01505ZM120.943 73.5032H20.8453V14.9707H120.943V73.5032Z" fill="#F4AEAE"/>
<path d="M127.397 82.0505H14.6031C13.8574 82.0505 13.1342 82.3428 12.5556 82.8828L1.19283 93.4726C-1.15899 95.662 0.19913 100 3.23659 100H138.763C141.801 100 143.157 95.662 140.807 93.4726L129.441 82.8828C128.866 82.3428 128.143 82.0505 127.397 82.0505Z" fill="#F4AEAE"/>
<path d="M124.709 77.4782V11.5581H17.1466V77.4782H124.709ZM69.8918 53.7833H46.6102V50.7784H69.8918V53.7833ZM96.3461 70.3494H71.3513V68.0688H96.3461V70.3494ZM119.346 66.436H71.3513V64.1572H119.346V66.436ZM119.346 62.5206H71.3513V60.2437H119.346V62.5206ZM119.346 58.6109H71.3513V56.3302H119.346V58.6109ZM71.3513 53.7833V50.7784H94.6367V53.7833H71.3513ZM119.38 53.7833H96.0944V50.7784H119.38V53.7833ZM21.869 17.1565H119.38V48.0732H21.869V17.1565ZM21.869 50.7784H45.1525V53.7833H21.869V50.7784ZM21.869 56.5071H69.8636V71.6881H21.869V56.5071Z" fill="white"/>
<path d="M119.38 17.1565H21.869V48.0732H119.38V17.1565Z" fill="#FFEDED"/>
<path d="M45.1525 50.7783H21.869V53.7832H45.1525V50.7783Z" fill="#FFEDED"/>
<path d="M69.8636 56.5071H21.869V71.688H69.8636V56.5071Z" fill="#FFEDED"/>
<path d="M69.8917 50.7783H46.6101V53.7832H69.8917V50.7783Z" fill="#FFEDED"/>
<path d="M94.6367 50.7783H71.3513V53.7832H94.6367V50.7783Z" fill="#FFEDED"/>
<path d="M119.346 56.3303H71.3513V58.611H119.346V56.3303Z" fill="#FFEDED"/>
<path d="M119.346 60.2456H71.3513V62.5226H119.346V60.2456Z" fill="#FFEDED"/>
<path d="M119.346 64.1572H71.3513V66.436H119.346V64.1572Z" fill="#FFEDED"/>
<path d="M96.3461 68.0688H71.3513V70.3495H96.3461V68.0688Z" fill="#FFEDED"/>
<path d="M119.38 50.7783H96.0944V53.7832H119.38V50.7783Z" fill="#FFEDED"/>
<g style="mix-blend-mode:soft-light">
<path d="M40.6554 8.4209L14.8811 81.0602C13.9532 80.2019 13.3896 79.0625 13.3896 77.8076V13.2429C13.3896 10.5787 15.9387 8.4209 19.0832 8.4209H40.6554Z" fill="white" fill-opacity="0.6"/>
</g>
<g style="mix-blend-mode:soft-light">
<path d="M21.8295 80.5202L47.3784 8.4209H43.5125L17.9636 80.5202H21.8295Z" fill="white" fill-opacity="0.6"/>
</g>
<path d="M11.8669 17.2486L11.4124 17.2542L11.5525 28.4631L12.0071 28.4575L11.8669 17.2486Z" fill="#1E1E28"/>
<path d="M11.7836 28.1055C11.7836 28.1055 11.7779 28.1055 11.776 28.1055C11.7742 28.1055 11.7704 28.1055 11.7685 28.1055C10.6978 28.1706 10.8894 33.6387 10.8894 33.6387L11.838 33.6275H11.8531L12.8017 33.6163C12.8017 33.6163 12.8562 28.1464 11.7836 28.1092V28.1055Z" fill="#1E1E28"/>
<path d="M37.3344 11.0646L47.2376 4.15922L24.9835 0L2.27673 19.154L15.4165 20.7942L37.3344 11.0646Z" fill="#1E1E28"/>
<path d="M37.7852 13.6376C37.7852 13.6376 27.6378 15.1177 17.0565 23.2388L14.4661 19.1336C14.4661 19.1336 26.6497 11.0814 37.2743 9.92896L37.7833 13.6376H37.7852Z" fill="#3D3D4E"/>
<path d="M78.9647 48.4639H91.8378V47.4808H78.9647V48.4639Z" fill="#BDC1C8"/>
<path d="M95.636 24.8511H100.109V24.0431H95.636V24.8511Z" fill="#B8B7B8"/>
<path d="M107.637 24.8511H112.11V24.0431H107.637V24.8511Z" fill="#B8B7B8"/>
<path d="M75.1326 43.9788C75.1326 43.9788 73.1151 44.8892 72.6493 44.1371C72.1834 43.3849 71.1916 42.603 70.8666 42.3721C70.4327 42.0649 69.4146 40.622 69.0595 41.1657C68.7045 41.7093 70.6281 43.6214 70.9587 44.1017C71.2893 44.582 68.8003 44.2972 68.3232 44.6137C67.8461 44.9302 67.8235 49.1974 69.5423 49.1881C71.263 49.1806 73.04 47.9984 73.3462 48.058C73.6524 48.1194 75.6266 47.6726 75.6266 47.6726L75.1326 43.977V43.9788Z" fill="#EDADA6"/>
<path d="M68.7196 44.5151C68.7196 44.5151 63.4731 44.9005 63.1575 45.2301C62.8419 45.5596 62.8945 45.8538 63.3867 45.8389C63.8788 45.824 68.4735 45.6192 68.4735 45.6192C68.4735 45.6192 62.3873 47.1589 62.0699 47.3674C61.8839 47.4903 61.9496 48.0637 62.2164 48.0804C62.4831 48.0972 68.6144 46.9336 68.6144 46.9336C68.6144 46.9336 62.9358 48.3821 62.7236 48.6408C62.5395 48.868 62.7254 49.3837 63.1556 49.3074C63.5858 49.231 68.945 48.1977 68.945 48.1977C68.945 48.1977 64.8894 49.5233 64.8406 49.8584C64.8105 50.0632 64.8462 50.5603 65.8813 50.1843C66.9163 49.8082 69.4597 49.1901 69.4597 49.1901L68.7196 44.5189V44.5151Z" fill="#EDADA6"/>
<path d="M93.7087 74.1081C93.6899 74.3333 93.7275 75.7353 93.7932 77.7869H104.715C104.893 77.0013 104.882 75.2866 105.004 75.2996C105.13 75.3126 105.505 77.0311 105.774 77.7869H118.38C117.817 73.1846 117.142 68.1802 116.605 64.155C116.566 63.885 116.534 63.63 116.502 63.3861C116.305 61.9208 116.16 60.8485 116.089 60.3327C116.057 60.1112 116.04 59.9939 116.04 59.9939C115.771 59.8692 115.488 59.7574 115.193 59.6513C108.158 57.1454 94.5897 59.7984 94.5897 59.7984C93.442 67.1245 93.7068 74.1099 93.7068 74.1099L93.7087 74.1081Z" fill="#3D3D4E"/>
<path d="M100.918 21.3954C100.918 21.3954 89.8334 23.9535 88.8735 27.1259C87.9137 30.3003 86.5161 35.4258 84.4216 43.6735C84.106 44.9134 73.8816 43.9974 73.8816 43.9974C73.8816 43.9974 72.206 46.4959 72.1797 46.6579C72.1083 47.0973 86.5161 49.6516 87.6807 49.3593C89.3619 48.9367 92.1928 37.7828 92.1928 37.7828C92.1928 37.7828 93.7181 54.6319 93.7181 57.2347C93.7181 59.8374 93.5453 65.1063 93.5453 65.1063C93.5453 65.1063 97.815 66.7279 106.105 66.2997C106.105 66.2997 119.299 65.851 117.047 61.8649C115.343 58.8507 115.72 36.662 115.978 36.5354C116.233 36.4088 121.5 44.0309 121.051 45.1294C120.603 46.2278 108.699 50.1711 108.699 50.1711C108.699 50.1711 108.351 51.4427 110.2 54.321C110.2 54.321 126.356 48.5793 126.42 47.5013C126.484 46.4214 120.65 26.0591 118.213 24.9626C114.706 23.3838 105.534 20.9001 105.534 20.9001L100.918 21.3954Z" fill="white"/>
<path d="M108.699 50.0502C108.699 50.0502 108.669 52.7125 110.326 54.7028C110.326 54.7028 123.259 50.2866 124.814 49.6797C126.369 49.0727 119.164 30.0938 119.164 30.0938L113.861 31.8829L116.709 37.2225C116.709 37.2225 118.119 40.2125 121.051 45.1332C121.051 45.1332 119.246 46.7083 108.699 50.052V50.0502Z" fill="white"/>
<path d="M101.106 17.4242C101.106 17.4242 101.581 20.0028 100.764 21.7641C100.764 21.7641 99.932 25.8693 104.172 26.0517C108.411 26.236 108.364 21.6244 108.364 21.6244C108.364 21.6244 107.493 21.1217 108.171 17.4484C108.849 13.7751 101.104 17.4224 101.104 17.4224L101.106 17.4242Z" fill="#EDADA6"/>
<path d="M103.683 2.51145C103.683 2.51145 98.2583 3.37904 99.0848 11.9935C99.9114 20.608 104.7 19.9024 105.019 19.893C105.338 19.8837 109.826 20.0494 110.175 9.53223C110.175 9.53223 110.327 1.75557 103.683 2.51145Z" fill="#EDADA6"/>
<path d="M99.0003 9.56023C99.0003 9.56023 98.4067 8.91605 98.1888 9.56768C97.9709 10.2193 98.9627 13.0269 99.036 13.2633C99.036 13.2633 99.1449 13.5165 99.2877 13.3769C99.4305 13.2372 99.0022 9.56023 99.0022 9.56023H99.0003Z" fill="#EDADA6"/>
<path d="M110.042 9.45022C110.042 9.45022 110.624 8.79488 110.853 9.44278C111.083 10.0907 110.125 13.0453 110.078 13.1552C110.078 13.1552 109.974 13.4102 109.83 13.2743C109.685 13.1384 110.044 9.45208 110.044 9.45208L110.042 9.45022Z" fill="#EDADA6"/>
<path d="M99.0022 10.882L99.778 11.9358C99.778 11.9358 99.7554 9.6253 99.8813 9.26412C100.005 8.90107 99.7348 7.64065 99.8381 7.38C99.9414 7.11935 103.548 8.08933 109.463 7.49356C109.463 7.49356 108.806 9.57504 109.191 9.72212C109.576 9.8692 109.388 12.4273 109.388 12.4273L110.027 11.6956C110.027 11.6956 110.748 7.326 110.677 6.59619C110.583 5.6262 110.915 1.0909 102.594 1.86912C101.641 1.95849 100.727 2.30478 99.9658 2.8931C99.1111 3.55403 98.232 4.58732 98.3128 6.006C98.4199 7.88081 99.0041 10.882 99.0041 10.882H99.0022Z" fill="#1F1E3C"/>
<path d="M107.489 18.7517C107.489 18.7517 105.252 21.3414 101.698 18.7517C101.698 18.7517 102.693 20.7159 104.782 20.7624C106.871 20.809 107.489 18.7517 107.489 18.7517Z" fill="#D39B97"/>
<path d="M116.96 64.6985C116.96 64.6985 117.745 64.9573 117.877 62.6878C118.046 59.7462 119.906 45.7512 119.906 45.7512L121.805 39.328L109.824 22.1494L108.56 21.7956C108.199 21.7063 108.755 22.2834 108.695 22.6465C108.432 24.2495 107.949 28.0419 107.793 28.8146C107.596 29.7883 110.414 66.3853 110.414 66.3853C110.414 66.3853 115.456 66.0614 116.96 64.6985Z" fill="#BE242F"/>
<path d="M104.964 26.3163L105.505 27.7499C105.584 27.9602 105.535 28.219 105.391 28.3456L104.435 29.1853C104.281 29.3193 104.078 29.2505 103.988 29.0308L103.387 27.5972C103.296 27.3812 103.347 27.1057 103.501 26.9791L104.517 26.1394C104.675 26.0091 104.88 26.0891 104.964 26.3181V26.3163Z" fill="#FAAC1A"/>
<path d="M104.931 28.3773L106.971 45.515C106.974 45.5429 106.974 45.569 106.971 45.5969L105.605 54.6768C105.552 55.0268 105.045 55.0306 104.987 54.6805L103.447 45.1948C103.443 45.1761 103.443 45.1575 103.443 45.1389L103.822 28.0999C103.828 27.8579 104.097 27.7164 104.303 27.8448L104.79 28.152C104.869 28.2023 104.921 28.2842 104.932 28.3773H104.931Z" fill="#FAAC1A"/>
<path d="M107.879 62.3984L121.409 58.5051L115.494 38.3138L101.965 42.2071L107.879 62.3984Z" fill="#412464"/>
<path d="M109.176 62.0283L122.706 58.135L116.791 37.9437L103.262 41.837L109.176 62.0283Z" fill="#412464"/>
<path d="M108.766 60.7179L124.93 56.0667L117.863 31.9419L101.699 36.5931L108.766 60.7179Z" fill="#6A3691"/>
<path d="M110.313 60.2733L126.477 55.6221L119.41 31.4973L103.246 36.1485L110.313 60.2733Z" fill="#6A3691"/>
<path d="M108.957 40.9889L118.082 38.3633L117.669 36.9544L108.545 39.58L108.957 40.9889Z" fill="#412464"/>
<path d="M109.923 43.6398L119.047 41.0142L118.635 39.6053L109.51 42.2309L109.923 43.6398Z" fill="#412464"/>
<path d="M105.006 49.5903C105.006 49.5903 103.721 49.5549 103.326 49.499C102.932 49.4432 103.193 50.2717 103.65 50.4281C104.106 50.5845 105.006 49.5903 105.006 49.5903Z" fill="#E6A180"/>
<path d="M104.254 55.6746C104.254 55.6746 104.816 55.8105 105.09 55.7509C105.09 55.7509 105.581 55.6038 105.936 55.5219C106.048 55.4958 106.148 55.4753 106.212 55.4698C106.484 55.4437 107.091 55.4642 107.728 55.2165C108.363 54.9708 110.521 53.8742 110.521 53.8742L109.905 51.8858L109.441 50.3108C109.441 50.3108 105.795 49.3501 105.175 49.5102C105.115 49.5269 105.055 49.5437 105.002 49.566C104.491 49.7541 104.19 50.106 103.933 50.2344C103.839 50.2828 102.936 50.819 102.889 51.1281C102.823 51.5563 102.953 51.8784 103.174 52.0776C103.174 52.0776 103.082 52.921 103.398 53.3995C103.398 53.3995 103.289 54.1758 103.85 54.658C103.85 54.658 103.828 55.4567 104.252 55.6746H104.254Z" fill="#EDA885"/>
<path d="M108.819 22.5927C108.671 22.2762 108.96 21.9318 109.3 22.0174C111.464 22.5667 117.124 24.0989 118.857 25.5064C121.018 27.2583 126.954 44.1875 127.5 46.1405C128.009 47.9632 125.177 49.7729 124.793 50.0075C124.765 50.0242 124.737 50.0372 124.705 50.0484L110.388 54.7792C110.179 54.8481 109.952 54.7438 109.869 54.5428C109.544 53.7422 108.804 51.778 108.823 50.512C108.825 50.3426 108.937 50.1955 109.097 50.1396C113.994 48.3784 120.837 45.5429 121.609 44.5859C122.381 43.629 114.56 34.2233 113.983 33.5307C113.96 33.5046 113.942 33.4748 113.927 33.4432L108.819 22.5964V22.5927Z" fill="#BE242F"/>
<path d="M99.9564 22.0414C99.8719 21.7975 100.55 21.4531 100.298 21.5145C98.4311 21.9763 90.3425 24.0633 88.8078 26.0889C87.4027 27.9451 85.2537 38.0378 84.431 42.104C84.2319 43.0889 83.3509 43.7908 82.3384 43.7759L72.3901 43.6176C72.1233 43.6139 71.8998 43.815 71.881 44.0775L71.5635 48.1697C71.5429 48.4452 71.7514 48.6854 72.0294 48.7059L87.9437 49.8062C88.2236 49.8248 88.4847 49.6628 88.5899 49.404L91.6593 41.726C91.8603 41.2252 92.6098 41.3518 92.6304 41.8917L93.5058 64.9834C93.5152 65.231 93.7068 65.434 93.9547 65.46L101.983 66.3258C102.286 66.3593 102.551 66.1191 102.541 65.8175C102.468 63.1682 101.469 52.1129 101.469 50.2307C101.469 48.4992 101.083 34.1523 100.935 28.7364C100.898 27.3717 100.65 26.02 100.199 24.7298L99.9564 22.0451V22.0414Z" fill="#BE242F"/>
</g>
<defs>
<clipPath id="clip0_225_220">
<rect width="142" height="100" fill="white"/>
</clipPath>
</defs>
</svg>
