<svg width="170" height="96" viewBox="0 0 170 96" fill="none" xmlns="http://www.w3.org/2000/svg">
<g clip-path="url(#clip0_225_503)">
<g clip-path="url(#clip1_225_503)">
<path d="M76.8139 35.6318V14.3271H57.4134C34.6837 14.3271 16.259 32.8169 16.259 55.627V75.0961H37.4887C37.4887 70.0819 41.5428 66.0135 46.5393 66.0135C51.5358 66.0135 55.5899 70.0819 55.5899 75.0961H76.8195V53.7914C81.816 53.7914 85.8701 49.723 85.8701 44.7088C85.8701 39.6946 81.816 35.6262 76.8195 35.6262L76.8139 35.6318Z" fill="#CA8DFF"/>
<path d="M127.32 72.4659L148.455 74.4749L154.171 13.9746L93.8835 8.23853L91.8816 29.4481C96.8558 29.9237 100.508 34.3559 100.04 39.3477C99.566 44.3395 95.1494 48.005 90.1752 47.5349L88.1732 68.7444L109.308 70.7535C108.834 75.7453 112.487 80.183 117.466 80.6531C122.441 81.1288 126.863 77.4633 127.331 72.4659H127.32Z" fill="#FAAC1A"/>
<path d="M21.5902 51.8663C21.5902 51.8663 29.4195 49.9132 30.217 52.2188C31.0144 54.5189 30.8638 59.3764 30.8638 59.3764L32.2189 62.0513C32.3249 62.264 32.2524 62.527 32.0516 62.6501L31.4605 63.0195C31.1538 63.2097 30.9531 63.5343 30.9307 63.8981C30.8694 64.8382 30.7188 66.6346 30.4679 66.9312C30.1166 67.3341 27.3283 67.53 27.3283 67.53L27.4287 70.8821H21.2444L21.144 66.9816C21.144 66.9816 19.6495 62.5774 19.1979 58.9287C18.7517 55.2744 20.4916 51.8607 21.5902 51.8719V51.8663Z" fill="#EDADA6"/>
<path d="M71.5051 76.0921C71.5051 76.0921 73.9476 73.7753 75.2414 73.5906C76.5351 73.4059 79.2062 73.5906 79.2062 73.5906C79.2062 73.5906 79.2508 74.514 77.9627 75.0736H81.8662C81.8662 75.0736 80.1598 77.2505 77.5779 77.7598C74.996 78.269 71.8286 78.8231 71.8286 78.8231L71.5051 76.0921Z" fill="#EDADA6"/>
<path d="M14.6363 49.3816L16.2925 46.7458C16.2925 46.7458 15.7906 39.9856 18.2331 38.7825V44.6137C18.2331 44.6137 19.1978 42.5823 19.6495 42.4871C20.1012 42.392 20.3076 46.2814 19.7555 47.4845C19.2034 48.6877 18.4618 48.9675 18.4618 48.9675L16.8948 51.5138L14.6363 49.3872V49.3816Z" fill="#EDADA6"/>
<path d="M20.9544 69.2426L13.4541 66.2206C12.3945 65.7953 11.9428 64.5306 12.5005 63.5233L18.9134 51.9336C19.1588 51.4859 19.0138 50.9263 18.5844 50.6577L15.2274 48.5535C14.6363 48.1841 13.8611 48.3688 13.4931 48.962L2.26766 67.2056C1.75463 68.0786 1.99441 69.1978 2.81416 69.7854L17.5082 77.8215L20.9544 69.2426Z" fill="#BE242F"/>
<path d="M14.9541 50.2939L17.207 49.8015L15.4783 48.7214C14.7478 48.2625 13.7831 48.492 13.3258 49.2251L2.26766 67.2056C1.93865 67.7652 1.9498 68.4088 2.18959 68.9684C3.73985 68.073 6.05409 66.853 7.32552 66.7747C9.35536 66.6516 17.4134 71.5258 17.4134 71.5258L20.1068 71.3356L20.9488 69.2426L11.4465 65.4148L8.61926 64.3012L14.9541 50.2883V50.2939Z" fill="#BE242F"/>
<path d="M17.2182 71.1564C17.2182 71.1564 19.248 69.0578 21.6459 68.9627C24.0438 68.8675 31.0534 70.4289 32.7152 71.1564C34.2264 71.8167 37.6782 105.041 37.5333 115.601C37.5165 116.967 36.418 118.064 35.0629 118.086C30.3452 118.159 19.5603 118.203 13.5265 117.202C12.0265 116.956 11.1064 115.422 11.558 113.967C12.9745 109.423 15.7014 99.5514 15.8798 90.3569C15.9579 86.2661 14.7701 72.8576 17.2182 71.162V71.1564Z" fill="#BE242F"/>
<path d="M35.0015 83.233C34.4439 78.7617 33.8751 75.0346 33.3844 72.9528C33.2171 72.9193 33.0665 72.8913 32.9382 72.8689C29.6649 72.2813 28.6499 74.9339 28.6499 74.9339C28.4994 75.1913 28.4771 76.4169 28.4938 77.7656C28.5328 80.1607 30.2113 82.2089 32.5479 82.7126L34.996 83.2386L35.0015 83.233Z" fill="#9C2935"/>
<path d="M72.2134 74.4862L53.5322 76.361C53.4597 76.3665 53.3928 76.3609 53.3259 76.3442C51.9039 75.9692 35.8436 71.7161 32.7152 71.1565C29.4418 70.5689 28.4269 73.2215 28.4269 73.2215C28.2763 73.4789 28.254 74.7045 28.2708 76.0532C28.3098 78.4483 29.9883 80.4965 32.3249 81.0002L46.4835 84.0277C49.4223 84.6545 52.4559 84.6489 55.3892 84.0109L72.9216 80.1887C73.2227 80.1216 73.4235 79.8418 73.3844 79.5396L72.8658 75.0123C72.8268 74.6877 72.5368 74.4527 72.2134 74.4862Z" fill="#BE242F"/>
<path d="M72.7989 74.4247L53.4262 76.3665C53.4262 76.3665 35.9886 71.7385 32.7152 71.1509C29.4418 70.5633 28.4269 73.2159 28.4269 73.2159C28.4269 73.2159 31.1036 72.9361 37.5388 74.4638C43.9741 75.9916 53.4262 78.5826 53.4262 78.5826L71.968 76.5008L73.4234 79.8697L72.7989 74.4191V74.4247Z" fill="#BE242F"/>
<path d="M20.9544 66.4388C21.0771 66.7914 21.4006 67.0264 21.7686 67.0376C22.2872 67.0544 22.9843 66.9929 23.2575 66.5731C23.5865 66.0751 23.8877 64.7936 24.0327 64.0996C24.0884 63.8254 24.0215 63.5456 23.8431 63.3329C23.3691 62.7789 22.5103 61.5478 23.0289 60.3726C23.5865 59.1078 24.3784 60.0704 24.6795 60.5125C24.7576 60.63 24.8078 60.7587 24.8245 60.893L24.8747 61.2624C24.936 61.7101 25.3208 62.0458 25.7725 62.0458C25.7725 62.0458 25.5885 60.0424 26.1908 59.203C26.6257 58.5986 26.9882 57.1268 27.0551 55.9292C27.083 55.3808 27.5793 54.989 28.1146 55.0898C29.0403 55.2633 30.4177 55.2353 31.7561 54.1664C34.0926 52.3029 32.8379 49.1746 31.0702 48.7549C29.7653 48.4471 28.8619 49.0235 28.4771 49.3481C28.321 49.4768 28.1258 49.5496 27.925 49.5496C26.8153 49.5551 23.3579 49.5943 22.1924 49.8294C21.0269 50.0644 19.789 51.788 19.4488 52.2973C19.3875 52.3868 19.315 52.4652 19.2257 52.5267C18.8075 52.8345 17.5416 53.937 17.7759 55.89C18.0156 57.8711 20.2797 64.4914 20.9544 66.4332V66.4388Z" fill="#1F1E3C"/>
<path d="M27.3228 67.5301C27.3228 67.5301 25.5327 67.2055 25.187 66.1367C24.8413 65.0622 24.607 64.0381 24.607 64.0381C24.607 64.0381 24.1665 66.2542 24.3282 67.1384C24.4899 68.0226 27.3562 68.5654 27.3562 68.5654L27.3284 67.5357L27.3228 67.5301Z" fill="#D39B97"/>
<path d="M22.3932 16.6775C22.304 16.6775 22.3318 16.3977 21.6961 16.3361C21.6571 16.3361 21.3114 16.3082 20.737 16.2186C19.973 16.1179 19.2481 15.8045 18.6458 15.312C18.261 14.9819 17.9432 14.5733 17.7145 14.1145C17.458 13.5772 17.2684 13.012 17.1513 12.43C16.9115 11.2324 16.8 10.0181 16.8223 8.79808C16.8223 8.73093 16.8223 8.64139 16.8223 8.56864C16.8334 8.39516 16.7052 8.24406 16.5323 8.23287C16.5212 8.23287 16.51 8.23287 16.5044 8.23287C16.2814 8.21608 16.1029 8.35039 16.1029 8.50148C16.1029 8.65258 16.1029 8.74212 16.1029 8.80927C16.1029 9.75503 16.036 10.6952 15.9022 11.6353C15.7906 12.6539 15.4672 13.6388 14.9486 14.5174C14.4523 15.2673 13.6995 15.8045 12.8295 16.0228C12.0823 16.2242 11.3127 16.3305 10.5432 16.3361C9.88516 16.3361 10.0525 16.6495 10.0525 16.6495C10.0525 16.9797 10.5432 17.0413 10.5432 17.0413C10.8499 17.0525 11.0618 17.058 11.257 17.0636C11.7644 17.0916 12.2663 17.17 12.757 17.2931C13.4374 17.4554 14.0619 17.8023 14.5527 18.3004C15.1047 18.9272 15.4951 19.6827 15.6847 20.4941C15.9022 21.3671 16.036 22.2569 16.0862 23.1523C16.1308 23.7735 16.142 24.4058 16.1531 24.9599C16.1531 24.9599 16.1754 25.1781 16.471 25.1725C16.7665 25.1613 16.7777 24.9599 16.7777 24.9599C16.7386 23.5048 16.8669 22.0442 17.168 20.6228C17.3409 19.6715 17.8038 18.7985 18.4897 18.1157C18.9135 17.7296 19.4209 17.4442 19.9786 17.2875C20.1961 17.2147 20.4247 17.1588 20.6533 17.1196C20.8429 17.0804 21.0325 17.0469 21.2277 17.0301C21.5511 17.0133 21.8802 16.9741 22.198 16.9125C22.3876 16.8902 22.2705 16.6607 22.3876 16.6607L22.3932 16.6775Z" fill="white"/>
<path d="M159 14.4446C158.911 14.4446 158.939 14.1648 158.303 14.1032C158.264 14.1032 157.918 14.0752 157.344 13.9857C156.58 13.885 155.855 13.5716 155.253 13.0791C154.868 12.749 154.55 12.3404 154.321 11.8815C154.065 11.3443 153.875 10.7791 153.758 10.1971C153.518 8.99951 153.407 7.78514 153.429 6.56517C153.429 6.49802 153.429 6.40848 153.429 6.33573C153.44 6.16225 153.312 6.01115 153.139 5.99996C153.128 5.99996 153.117 5.99996 153.111 5.99996C152.888 5.98317 152.71 6.11748 152.71 6.26857C152.71 6.41967 152.71 6.50921 152.71 6.57636C152.71 7.52212 152.643 8.46228 152.509 9.40244C152.397 10.4209 152.074 11.4059 151.555 12.2845C151.059 13.0344 150.306 13.5716 149.436 13.7898C148.689 13.9913 147.92 14.0976 147.15 14.1032C146.492 14.1032 146.659 14.4166 146.659 14.4166C146.659 14.7468 147.15 14.8083 147.15 14.8083C147.457 14.8195 147.669 14.8251 147.864 14.8307C148.371 14.8587 148.873 14.9371 149.364 15.0602C150.044 15.2225 150.669 15.5694 151.159 16.0675C151.712 16.6943 152.102 17.4497 152.292 18.2612C152.509 19.1342 152.643 20.024 152.693 20.9194C152.738 21.5406 152.749 22.1729 152.76 22.7269C152.76 22.7269 152.782 22.9452 153.078 22.9396C153.373 22.9284 153.384 22.7269 153.384 22.7269C153.345 21.2719 153.474 19.8113 153.775 18.3899C153.948 17.4386 154.411 16.5655 155.096 15.8828C155.52 15.4967 156.028 15.2113 156.585 15.0546C156.803 14.9818 157.032 14.9259 157.26 14.8867C157.45 14.8475 157.639 14.8139 157.835 14.7972C158.158 14.7804 158.487 14.7412 158.805 14.6796C158.994 14.6573 158.877 14.4278 158.994 14.4278L159 14.4446Z" fill="white"/>
<path d="M92.6455 86.5348C92.5731 86.5572 92.534 86.3277 92.0154 86.4173C91.9875 86.4228 91.7031 86.4788 91.2291 86.5348C90.599 86.6243 89.9521 86.5348 89.3666 86.2773C88.9874 86.0983 88.6472 85.8464 88.3628 85.5331C88.0394 85.1637 87.7661 84.7552 87.5487 84.3187C87.097 83.4233 86.7401 82.4775 86.4891 81.5038C86.4724 81.4478 86.4557 81.3751 86.4445 81.3191C86.4166 81.1792 86.2828 81.0897 86.1434 81.1177C86.1378 81.1177 86.1267 81.1177 86.1211 81.1233C85.9426 81.1568 85.8311 81.3023 85.8646 81.4255C85.898 81.5486 85.9203 81.6157 85.9371 81.6717C86.1434 82.4216 86.2939 83.1883 86.3943 83.9605C86.5282 84.7944 86.4891 85.6506 86.2661 86.462C86.0374 87.1671 85.5523 87.7603 84.911 88.1297C84.3645 88.4543 83.7734 88.7061 83.16 88.8852C82.6358 89.0363 82.8365 89.2433 82.8365 89.2433C82.909 89.5063 83.3105 89.4448 83.3105 89.4448C83.5559 89.3832 83.7232 89.3441 83.8849 89.3049C84.292 89.2153 84.7102 89.165 85.1285 89.1538C85.7028 89.1314 86.2772 89.2713 86.7791 89.5567C87.3535 89.9317 87.8275 90.4465 88.1621 91.0509C88.5301 91.6944 88.8312 92.3716 89.0655 93.0767C89.2383 93.5636 89.3833 94.0616 89.5171 94.5037C89.5171 94.5037 89.5841 94.6716 89.8127 94.6045C90.0469 94.5317 90.0135 94.3694 90.0135 94.3694C89.6621 93.2222 89.4502 92.0358 89.3722 90.8326C89.3052 90.038 89.4781 89.2433 89.874 88.5494C90.125 88.1465 90.4707 87.8107 90.8778 87.5645C91.0339 87.4581 91.2012 87.363 91.3741 87.2847C91.5135 87.2119 91.6641 87.1448 91.8091 87.0888C92.0656 86.9993 92.311 86.8985 92.5563 86.781C92.7013 86.725 92.5563 86.5628 92.6511 86.5404L92.6455 86.5348Z" fill="white"/>
</g>
</g>
<defs>
<clipPath id="clip0_225_503">
<rect width="170" height="96" fill="white"/>
</clipPath>
<clipPath id="clip1_225_503">
<rect width="157" height="163" fill="white" transform="translate(2 6)"/>
</clipPath>
</defs>
</svg>
