<svg width="170" height="96" viewBox="0 0 170 96" fill="none" xmlns="http://www.w3.org/2000/svg">
<g clip-path="url(#clip0_225_527)">
<g clip-path="url(#clip1_225_527)">
<path d="M94.8581 58.9344C96.5687 57.4945 98.6107 55.9792 99.9146 55.5273C101.232 55.0754 102.27 53.9412 102.27 53.9412L97.572 52.7671C97.572 52.7671 96.9444 52.9975 95.1322 53.9412C93.9344 54.5659 92.4978 56.2717 91.6536 57.366C92.7454 57.8401 93.815 58.3673 94.8625 58.9344H94.8581Z" fill="#EDADA6"/>
<path d="M96.8162 100.157C96.3432 95.5799 95.7156 96.466 95.3266 95.3893C94.699 93.657 90.6459 90.9898 84.9175 88.1631C83.1982 87.3124 79.7373 84.9775 74.5615 82.7312C69.1558 84.1135 62.1324 85.4117 56.7312 86.8118L54.8527 92.6734L64.0772 100.693C64.0772 100.693 70.1459 100.591 75.0919 101.53C81.2755 102.709 84.8601 102.93 84.8601 102.93C84.8601 102.93 87.2601 113.471 88.0425 118.575C88.9353 124.396 89.8237 126.705 89.8237 126.705C93.0106 127.586 97.351 125.69 97.351 125.69C97.351 125.69 97.1477 103.276 96.825 100.152L96.8162 100.157Z" fill="#383449"/>
<path d="M51.2946 47.105C51.4493 45.4524 53.0626 42.3908 49.9465 41.775C48.5719 41.5003 45.3939 40.5521 42.3618 39.3337C40.7264 40.53 38.9539 41.5224 37.0533 42.1604C35.1174 42.8117 32.9737 43.0023 30.9582 43.5029C35.4445 46.8569 45.4337 53.5381 49.0802 56.6218C51.909 59.0143 51.215 47.9822 51.2946 47.105Z" fill="#BE242F"/>
<path d="M72.2365 42.9624C71.3835 42.7409 61.9247 44.0435 64.4352 46.7638C68.3204 50.9773 78.1284 64.5437 80.3074 66.6217C81.85 68.0926 85.1164 69.9579 88.7054 67.5211C90.6281 66.2141 98.067 57.5745 98.067 57.5745L94.5708 53.9945L86.3849 59.8119C84.449 57.5966 81.9252 53.8395 80.9086 51.2609C78.3494 45.9132 74.062 43.4365 72.2409 42.958L72.2365 42.9624Z" fill="#BE242F"/>
<path d="M63.3081 35.262C63.5247 36.4139 64.5502 40.078 64.8861 40.4413C65.222 40.8046 65.2618 41.1458 66.5126 41.4781C66.5126 41.4781 71.2244 43.8927 66.0662 47.4593C60.9125 51.0259 56.2052 49.7322 56.2052 49.7322L55.5643 43.5117C55.5643 43.5117 57.1688 42.7895 57.4516 42.3642C57.7345 41.9344 57.5621 37.2158 57.5621 37.2158L63.3037 35.2664L63.3081 35.262Z" fill="#EDADA6"/>
<path d="M56.7268 38.6958C57.6108 38.6337 59.7058 38.3768 61.0716 37.4242C62.4374 36.4672 63.3921 36.1172 63.7722 36.1172C64.1524 36.1172 64.7844 36.1526 64.5811 36.7596C64.3778 37.3622 64.3734 38.8198 64.4352 39.573C64.5015 40.3218 65.3281 41.0396 65.3281 41.0396L61.8451 49.2893L56.7224 42.6611C56.7224 42.6611 57.1732 41.1813 57.2793 40.3218C57.3853 39.4623 56.7224 38.6958 56.7224 38.6958H56.7268Z" fill="#EDADA6"/>
<path d="M56.6693 38.6294C56.6693 38.6294 59.2904 40.6763 60.7269 40.5522C62.1634 40.4282 64.422 38.3325 64.422 38.3325L64.4529 36.5337C64.4529 36.5337 61.686 37.1141 61.1954 37.4863C60.2893 38.1774 56.6693 38.6294 56.6693 38.6294Z" fill="#D39B97"/>
<path d="M50.9498 29.7503C51.3034 30.5744 51.1266 31.146 51.9532 32.7144C53.2084 35.098 54.6273 37.176 55.003 37.6146C55.6218 38.3456 58.1102 39.1875 59.1091 39.3868C60.1081 39.5906 61.3103 39.5242 62.0263 39.3868C62.6717 39.2628 63.6927 38.2615 64.3292 37.464C64.9701 36.6665 65.1424 33.2328 64.8993 32.1783C64.7667 31.6068 64.5457 30.8624 63.98 28.1819C63.6264 26.5027 63.2639 24.9299 63.0164 24.0969C62.3799 21.9304 58.6981 19.7727 54.6317 21.2436C50.5697 22.7146 50.0526 27.6724 50.9454 29.7503H50.9498Z" fill="#EDADA6"/>
<path d="M52.8637 24.1236C55.7102 21.5228 59.9843 22.1608 60.7136 22.3292C61.77 22.5729 62.3799 23.747 62.6407 24.0881C62.9678 24.5135 63.4805 25.8294 63.4805 25.8294C63.3126 25.116 63.1623 24.509 63.0385 24.0881C62.402 21.9216 58.7202 19.7639 54.6538 21.2349C50.5918 22.7058 48.1962 26.4009 49.8227 30.322C50.1675 31.1505 50.7598 32.3379 51.9664 32.7056L53.9466 33.7955L54.7289 33.5873C54.7289 33.5873 53.425 31.5625 53.783 30.6941C54.0085 30.1447 54.5654 28.9573 53.7433 28.0092C53.5267 27.7611 52.3952 27.4022 52.1167 26.6402C51.8338 25.8781 52.1167 24.8059 52.8681 24.1236H52.8637Z" fill="#1F1E3C"/>
<path d="M66.1546 41.2388C66.1546 41.2388 66.8441 43.2724 62.7645 43.7642C58.6848 44.256 56.0328 41.6818 56.0328 41.6818L49.9421 41.7704C49.9421 41.7704 49.363 43.2946 49.2923 46.1921C49.2172 49.2758 48.4614 53.9235 49.5752 59.6832C50.4592 64.2423 51.5067 72.7579 50.804 78.203C50.1012 83.6438 52.3156 86.1205 52.3156 86.1205L52.8416 88.1231C52.8416 88.1231 58.1102 88.4243 63.9977 87.4275C69.8851 86.4306 79.2864 84.9862 79.2864 84.9862L79.4677 82.3722C79.4677 82.3722 80.8953 81.5215 79.8964 78.0701C78.8931 74.6143 77.0367 66.5019 76.5505 62.4435C76.0643 58.3806 72.1835 43.1483 72.1835 43.1483L66.1635 41.2388H66.1546Z" fill="white"/>
<path d="M53.8847 33.8532C53.8847 33.8532 52.9477 31.9835 51.109 32.4841C49.8183 32.8341 50.6935 33.9728 51.8825 34.9519C52.3863 35.3684 52.7178 35.9134 53.341 36.1039C54.0969 36.3387 54.3002 35.5722 54.3488 35.2355C54.4284 34.6772 53.8891 33.8532 53.8891 33.8532H53.8847Z" fill="#EDADA6"/>
<path d="M50.4283 26.9991C50.4283 26.9991 51.2592 23.4945 53.341 22.7458C55.4229 21.997 58.7688 21.1065 60.6959 22.1299C62.623 23.1534 63.5822 25.2978 63.4186 25.887C63.2242 26.5738 62.6628 25.9978 60.9169 26.2504C59.171 26.5029 57.0583 25.7541 56.1743 27.6992C55.2505 29.7328 55.2991 29.9676 53.593 29.4182C52.6383 29.1125 50.4327 26.9991 50.4327 26.9991H50.4283Z" fill="#1F1E3C"/>
<path d="M53.3145 85.9122L71.8608 84.6052C71.8608 84.6052 73.1559 125.118 73.5714 137.745C73.9869 150.35 71.0697 163.802 71.0697 163.802C71.0697 163.802 67.9182 166.185 63.1888 163.062C63.1888 163.062 63.2286 137.059 61.9556 132.478C61.4606 130.705 57.7036 114.193 54.8483 103.4C53.6151 98.7388 53.646 87.6668 53.3145 85.9078V85.9122Z" fill="#3D3D4E"/>
<path d="M128.813 13.3484H78.7384V15.9669H128.813V13.3484Z" fill="#FAAC1A"/>
<path d="M128.813 53.9236H78.7384V56.5421H128.813V53.9236Z" fill="#FAAC1A"/>
<path d="M128.813 94.4944H78.7384V97.1129H128.813V94.4944Z" fill="#FAAC1A"/>
<path d="M128.813 -67V174.528H80.4003V-67H76.4621V174.307C76.4621 176.486 78.2256 178.254 80.4003 178.254H128.813C130.987 178.254 132.751 176.486 132.751 174.307V-67H128.813Z" fill="#FAAC1A"/>
<path d="M95.3531 53.8262C96.1929 53.0863 96.1487 53.0509 96.4802 52.6211C96.8117 52.1869 97.4968 51.4736 98.0803 51.3983C98.6637 51.323 98.9201 51.5533 98.9201 51.5533C98.9201 51.5533 99.3267 51.2476 99.7864 51.221C100.242 51.1945 100.675 51.5799 100.675 51.5799C100.675 51.5799 101.157 51.3274 101.59 51.4293C102.023 51.5312 102.328 51.9654 102.328 51.9654C102.328 51.9654 102.708 51.6863 103.066 51.7882C103.42 51.8901 104.211 53.1661 104.441 54.3889C104.671 55.6117 104.118 56.139 103.649 56.4536C103.375 56.6352 102.911 56.4358 102.911 56.4358C102.911 56.4358 102.765 56.8124 102.085 56.7593C101.665 56.7282 101.563 56.4004 101.563 56.4004C101.563 56.4004 101.139 56.8612 100.737 56.777C100.334 56.6928 100.255 56.3029 100.255 56.3029C100.255 56.3029 99.6273 56.4403 99.3267 56.0238C99.0262 55.6073 99.4858 54.9472 99.0041 54.256C98.5223 53.5692 97.8328 53.5471 97.8328 53.5471L95.3576 53.8307L95.3531 53.8262Z" fill="#EDADA6"/>
<path d="M97.1255 56.573C97.6029 57.211 99.2472 57.0559 99.751 56.8299C100.255 56.604 100.502 56.1565 100.388 55.8597C100.273 55.5628 99.9544 55.3103 99.4063 55.585C98.8582 55.8597 97.1255 56.573 97.1255 56.573Z" fill="#EDADA6"/>
<path d="M59.5202 16.0332C59.476 16.0465 59.423 16.0554 59.3788 16.0687C59.3788 16.0598 59.3876 16.051 59.392 16.0421C59.4849 15.6876 58.981 15.6655 57.8937 15.9623C57.9776 15.7098 57.7478 15.506 57.1467 15.7009C56.5058 15.9136 54.7776 16.2991 53.3013 16.7909C52.32 17.1187 49.7564 17.6548 48.6647 18.6074C47.8868 19.2853 47.4404 19.5644 46.7906 20.0651C45.8624 20.7784 43.4624 22.9892 41.8535 24.1855C42.6623 25.3552 43.9441 25.4615 44.837 26.5736C45.4911 25.9311 47.8426 23.9329 48.51 23.3968C49.6327 22.5861 50.0084 22.3911 50.8217 22.4841C51.4316 22.5506 51.9399 22.6171 52.9565 22.3734C53.6814 22.1962 54.53 21.6113 55.1135 21.2613C55.5201 21.0132 56.0638 20.6322 56.2229 20.5568C56.8682 20.2467 57.3544 20.0163 56.4881 19.7505C56.0903 19.6264 55.2991 19.8878 54.9897 20.0473C54.6096 20.2423 54.0173 20.4328 53.9466 20.4328C53.8582 20.4328 53.3455 21.186 54.4505 20.2777C55.4229 19.4847 57.1025 19.1125 58.0395 18.6606C59.1357 18.1378 60.1213 17.6903 59.8694 17.1453C59.8385 17.0744 59.781 17.0478 59.7191 17.0434C59.9932 16.9105 60.2053 16.7864 60.2981 16.6757C60.6871 16.2193 60.4131 15.7851 59.5158 16.0288L59.5202 16.0332Z" fill="#EDADA6"/>
<path d="M35.9042 43.8794C37.6235 43.4763 37.8534 43.2769 39.5197 42.7009C41.1507 42.1382 43.3032 40.8356 44.9431 40.2951C43.0292 39.378 39.5374 37.0253 38.8214 36.1126L48.2581 24.478L45.0712 21.3633C45.0712 21.3633 30.4013 31.1991 28.0675 36.6399C27.2277 38.5938 27.8244 41.3629 31.5151 43.9105C32.4168 43.6579 34.9892 44.0877 35.9042 43.875V43.8794Z" fill="#BE242F"/>
<path d="M52.8416 88.1231C52.8416 88.1231 48.9741 84.1267 50.2647 78.1233C51.5554 72.1199 48.8503 56.1078 48.8503 56.1078L49.0979 41.6818L56.1699 41.1768C56.1699 41.1768 57.9202 41.5135 58.9147 48.6866C59.9092 55.8597 61.244 71.8718 61.244 71.8718L60.7446 85.7173L52.8416 88.1275V88.1231Z" fill="#BE242F"/>
<path d="M68.2365 41.7617L72.8377 43.1219C73.1294 43.2061 73.3504 43.4454 73.4123 43.7466L76.3869 57.6896L77.8942 83.5154C77.9384 84.2642 77.461 84.9465 76.7405 85.1592C75.3173 85.5801 71.9493 86.4618 71.5603 86.4618C70.9769 86.4618 70.5614 73.7859 70.5614 73.7859L65.9513 41.0396L68.232 41.7617H68.2365Z" fill="#BE242F"/>
<path d="M61.412 44.0125L60.581 46.1834L61.5004 47.1847L62.4109 48.1816L63.4098 45.3461L61.412 44.0125Z" fill="#FAAC1A"/>
<path d="M62.1634 47.8714C62.1634 47.8714 65.5756 52.4393 61.9158 54.1894C58.2561 55.9395 55.9267 57.694 54.4284 58.8592C52.93 60.0245 47.4403 61.779 46.8569 63.6132C46.2735 65.4475 44.8591 71.3712 44.8591 71.3712L45.3585 73.7061L47.6039 71.2028C47.6039 71.2028 48.9343 65.2836 49.4338 64.8627C49.9332 64.4418 55.0914 61.1941 55.9223 60.6093C56.7533 60.0245 57.7522 58.6067 59.3346 57.9421C60.9169 57.2775 66.3226 54.1894 65.9071 51.8545C65.4916 49.5196 62.5788 46.8524 62.5788 46.8524L62.0396 46.7815L62.1634 47.8758V47.8714Z" fill="#FAAC1A"/>
<g clip-path="url(#clip2_225_527)">
<path d="M119.156 35.9432H154.072C154.318 35.9432 154.511 35.7215 154.474 35.4782C154.265 34.0184 153.31 29.5742 149.439 28.4658C149.257 28.4117 149.139 28.2333 149.155 28.0387C149.289 26.6816 149.364 21.6589 143.563 19.853C137.633 18.0094 133.638 21.5129 133.536 24.081C133.531 24.2811 133.386 24.4487 133.188 24.4757C132.067 24.6271 128.641 25.238 127.29 27.2331C126.089 29.0011 125.847 30.6609 125.799 31.4178C125.783 31.6449 125.59 31.8125 125.37 31.7963C124.528 31.7368 122.625 31.7584 121.37 32.9749C120.378 33.9319 120.078 34.4618 119.998 34.7267C119.949 34.8781 119.831 34.997 119.676 35.0241L119.086 35.1322C118.598 35.2187 118.663 35.9432 119.156 35.9432Z" fill="white"/>
</g>
<g clip-path="url(#clip3_225_527)">
<path d="M50.3261 13.528H25.1542C24.9764 13.528 24.8372 13.3728 24.8643 13.2025C25.015 12.1807 25.7031 9.06969 28.494 8.29384C28.6254 8.25599 28.7104 8.1311 28.6988 7.99485C28.6022 7.04491 28.5481 3.52897 32.7305 2.2649C37.0057 0.974339 39.8855 3.42679 39.9589 5.22449C39.9628 5.36453 40.0672 5.48185 40.2102 5.50077C41.0181 5.60674 43.4881 6.03441 44.4622 7.43094C45.3281 8.66852 45.502 9.83041 45.5368 10.3603C45.5484 10.5192 45.6876 10.6365 45.8461 10.6252C46.4529 10.5835 47.8252 10.5987 48.7297 11.4502C49.4448 12.1201 49.6613 12.491 49.7193 12.6765C49.754 12.7824 49.8391 12.8657 49.9512 12.8846L50.3764 12.9603C50.7281 13.0209 50.6818 13.528 50.3261 13.528Z" fill="white"/>
</g>
</g>
</g>
<defs>
<clipPath id="clip0_225_527">
<rect width="170" height="96" fill="white"/>
</clipPath>
<clipPath id="clip1_225_527">
<rect width="221" height="352" fill="white" transform="translate(-20 -67)"/>
</clipPath>
<clipPath id="clip2_225_527">
<rect width="35.7256" height="16.6038" fill="white" transform="translate(118.748 19.3396)"/>
</clipPath>
<clipPath id="clip3_225_527">
<rect width="25.7556" height="11.6226" fill="white" transform="matrix(-1 0 0 1 50.6203 1.90576)"/>
</clipPath>
</defs>
</svg>
