<svg width="18" height="18" viewBox="0 0 18 18" fill="none" xmlns="http://www.w3.org/2000/svg">
<path d="M12.7942 11.6407C13.1451 11.4012 13.5566 11.2658 13.9812 11.2503C14.4057 11.2349 14.826 11.3399 15.1934 11.5533C15.5607 11.7667 15.8601 12.0798 16.057 12.4563C16.2538 12.8328 16.3401 13.2573 16.3057 13.6807C15.4059 13.9953 14.4501 14.1176 13.5 14.04C13.4971 13.19 13.2523 12.3576 12.7942 11.6415C12.3877 11.0038 11.8268 10.479 11.1636 10.1156C10.5004 9.75223 9.75624 9.56199 8.99999 9.5625C8.24387 9.56211 7.49986 9.75242 6.83679 10.1158C6.17371 10.4792 5.61299 11.0039 5.20649 11.6415M13.4992 14.0392L13.5 14.0625C13.5 14.2312 13.491 14.3978 13.4722 14.562C12.1113 15.3428 10.5691 15.7525 8.99999 15.75C7.37249 15.75 5.84474 15.318 4.52774 14.562C4.50846 14.3884 4.49919 14.2139 4.49999 14.0392M4.49999 14.0392C3.55021 14.1197 2.59492 13.9978 1.69574 13.6815C1.6615 13.2582 1.74778 12.8338 1.94461 12.4574C2.14144 12.0811 2.44077 11.7681 2.80799 11.5547C3.17521 11.3413 3.59534 11.2362 4.01978 11.2516C4.44422 11.267 4.85565 11.4021 5.20649 11.6415M4.49999 14.0392C4.50268 13.1893 4.74871 12.3577 5.20649 11.6415M11.25 5.0625C11.25 5.65924 11.0129 6.23153 10.591 6.65349C10.169 7.07545 9.59673 7.3125 8.99999 7.3125C8.40325 7.3125 7.83096 7.07545 7.409 6.65349C6.98704 6.23153 6.74999 5.65924 6.74999 5.0625C6.74999 4.46576 6.98704 3.89347 7.409 3.47151C7.83096 3.04955 8.40325 2.8125 8.99999 2.8125C9.59673 2.8125 10.169 3.04955 10.591 3.47151C11.0129 3.89347 11.25 4.46576 11.25 5.0625ZM15.75 7.3125C15.75 7.53411 15.7063 7.75354 15.6215 7.95828C15.5367 8.16302 15.4124 8.34904 15.2557 8.50574C15.099 8.66244 14.913 8.78674 14.7083 8.87155C14.5035 8.95635 14.2841 9 14.0625 9C13.8409 9 13.6214 8.95635 13.4167 8.87155C13.212 8.78674 13.0259 8.66244 12.8692 8.50574C12.7125 8.34904 12.5882 8.16302 12.5034 7.95828C12.4186 7.75354 12.375 7.53411 12.375 7.3125C12.375 6.86495 12.5528 6.43573 12.8692 6.11926C13.1857 5.80279 13.6149 5.625 14.0625 5.625C14.51 5.625 14.9393 5.80279 15.2557 6.11926C15.5722 6.43573 15.75 6.86495 15.75 7.3125ZM5.62499 7.3125C5.62499 7.53411 5.58134 7.75354 5.49654 7.95828C5.41173 8.16302 5.28743 8.34904 5.13073 8.50574C4.97403 8.66244 4.788 8.78674 4.58327 8.87155C4.37853 8.95635 4.15909 9 3.93749 9C3.71588 9 3.49645 8.95635 3.29171 8.87155C3.08697 8.78674 2.90094 8.66244 2.74425 8.50574C2.58755 8.34904 2.46325 8.16302 2.37844 7.95828C2.29364 7.75354 2.24999 7.53411 2.24999 7.3125C2.24999 6.86495 2.42778 6.43573 2.74425 6.11926C3.06071 5.80279 3.48994 5.625 3.93749 5.625C4.38504 5.625 4.81426 5.80279 5.13073 6.11926C5.4472 6.43573 5.62499 6.86495 5.62499 7.3125Z" stroke="#8A0202" stroke-linecap="round" stroke-linejoin="round"/>
</svg>
