<svg width="18" height="18" viewBox="0 0 18 18" fill="none" xmlns="http://www.w3.org/2000/svg">
<path d="M13.4865 14.0438C12.9625 13.3499 12.2844 12.7872 11.5059 12.4C10.7273 12.0129 9.86953 11.8117 9.00001 11.8125C8.13049 11.8117 7.27267 12.0129 6.49412 12.4C5.71557 12.7872 5.03757 13.3499 4.51351 14.0438M13.4865 14.0438C14.5091 13.1342 15.2303 11.9352 15.5559 10.6058C15.8814 9.27649 15.7952 7.87959 15.3086 6.60038C14.822 5.32117 13.9581 4.22011 12.8313 3.4432C11.7046 2.66629 10.3683 2.25024 8.99964 2.25024C7.63101 2.25024 6.29471 2.66629 5.16796 3.4432C4.04122 4.22011 3.17726 5.32117 2.69066 6.60038C2.20406 7.87959 2.11782 9.27649 2.44337 10.6058C2.76892 11.9352 3.49089 13.1342 4.51351 14.0438M13.4865 14.0438C12.252 15.1449 10.6542 15.7524 9.00001 15.75C7.34553 15.7526 5.74819 15.1451 4.51351 14.0438M11.25 7.31252C11.25 7.90926 11.013 8.48156 10.591 8.90351C10.169 9.32547 9.59675 9.56252 9.00001 9.56252C8.40327 9.56252 7.83098 9.32547 7.40902 8.90351C6.98706 8.48156 6.75001 7.90926 6.75001 7.31252C6.75001 6.71579 6.98706 6.14349 7.40902 5.72153C7.83098 5.29958 8.40327 5.06252 9.00001 5.06252C9.59675 5.06252 10.169 5.29958 10.591 5.72153C11.013 6.14349 11.25 6.71579 11.25 7.31252Z" stroke="#8A0202" stroke-linecap="round" stroke-linejoin="round"/>
</svg>
